<svg xmlns="http://www.w3.org/2000/svg" width="262.92" height="124.92" viewBox="-0.14 -0.04 262.91 124.96"><g transform="translate(-14.088 -1327.1)" data-name="Group 324"><g transform="translate(-396 862)" data-name="Group 307"><path transform="translate(-10280 2974.1) rotate(-45)" d="m9361.7 5889.5-60.949-19.2 12.951-12.952 35.958 12.15-12.576-35.532 12.621-12.621 19.955 60.191z" fill="#d7e352" data-name="Path 333"></path><g transform="translate(-10283 3002.1) rotate(-45)" fill="none" data-name="Path 333"><path d="m9361.7 5889.5-60.949-19.2 12.951-12.952 35.958 12.15-12.576-35.532 12.621-12.621 19.955 60.191z"></path><path d="m9361.4 5888.4 7.0947-7.0962-19.251-58.067-11.028 11.029 13.052 36.876-37.318-12.61-11.347 11.347 58.798 18.521m0.27832 1.1362-60.949-19.199 12.951-12.952 35.958 12.15-12.576-35.532 12.621-12.621 19.955 60.191-7.96 7.9614z" fill="#d7e352"></path></g><path transform="translate(-10325 2974.1) rotate(-45)" d="m9326 5879.5" fill="none" stroke="#d7e352" stroke-width="20" data-name="Path 336"></path></g><g transform="translate(-315 862)" data-name="Group 309"><path transform="translate(-10280 2974.1) rotate(-45)" d="m9361.7 5889.5-60.949-19.2 12.951-12.952 35.958 12.15-12.576-35.532 12.621-12.621 19.955 60.191z" fill="#d7e352" data-name="Path 333"></path><g transform="translate(-10283 3002.1) rotate(-45)" fill="none" data-name="Path 333"><path d="m9361.7 5889.5-60.949-19.2 12.951-12.952 35.958 12.15-12.576-35.532 12.621-12.621 19.955 60.191z"></path><path d="m9361.4 5888.4 7.0947-7.0962-19.251-58.067-11.028 11.029 13.052 36.876-37.318-12.61-11.347 11.347 58.798 18.521m0.27832 1.1362-60.949-19.199 12.951-12.952 35.958 12.15-12.576-35.532 12.621-12.621 19.955 60.191-7.96 7.9614z" fill="#d7e352"></path></g><path transform="translate(-10325 2974.1) rotate(-45)" d="m9326 5879.5" fill="none" stroke="#d7e352" stroke-width="20" data-name="Path 336"></path></g><g transform="translate(-233 862)" data-name="Group 310"><path transform="translate(-10280 2974.1) rotate(-45)" d="m9361.7 5889.5-60.949-19.2 12.951-12.952 35.958 12.15-12.576-35.532 12.621-12.621 19.955 60.191z" fill="#d7e352" data-name="Path 333"></path><g transform="translate(-10283 3002.1) rotate(-45)" fill="none" data-name="Path 333"><path d="m9361.7 5889.5-60.949-19.2 12.951-12.952 35.958 12.15-12.576-35.532 12.621-12.621 19.955 60.191z"></path><path d="m9361.4 5888.4 7.0947-7.0962-19.251-58.067-11.028 11.029 13.052 36.876-37.318-12.61-11.347 11.347 58.798 18.521m0.27832 1.1362-60.949-19.199 12.951-12.952 35.958 12.15-12.576-35.532 12.621-12.621 19.955 60.191-7.96 7.9614z" fill="#d7e352"></path></g><path transform="translate(-10325 2974.1) rotate(-45)" d="m9326 5879.5" fill="none" stroke="#d7e352" stroke-width="20" data-name="Path 336"></path></g></g></svg>